<?xml version="1.0" encoding="UTF-8"?>
<!DOCTYPE svg PUBLIC "-//W3C//DTD SVG 1.1//EN" "http://www.w3.org/Graphics/SVG/1.1/DTD/svg11.dtd">
<!-- Creator: CorelDRAW X6 -->
<svg xmlns="http://www.w3.org/2000/svg" xml:space="preserve" width="321.457mm" height="241.637mm" version="1.1" style="shape-rendering:geometricPrecision; text-rendering:geometricPrecision; image-rendering:optimizeQuality; fill-rule:evenodd; clip-rule:evenodd"
viewBox="0 0 29339 22054"
 xmlns:xlink="http://www.w3.org/1999/xlink">
 <defs>
  <style type="text/css">
   <![CDATA[
    .str0 {stroke:#FEFEFE;stroke-width:353.48;stroke-linejoin:round}
    .str1 {stroke:black;stroke-width:874.318;stroke-linecap:round;stroke-linejoin:round;stroke-opacity:0.250980}
    .str2 {stroke:#FEFEFE;stroke-width:874.318;stroke-linecap:round;stroke-linejoin:round}
    .fil2 {fill:none;fill-rule:nonzero}
    .fil29 {fill:none;fill-rule:nonzero}
    .fil6 {fill:#F58634}
    .fil4 {fill:#A8CF45;fill-rule:nonzero}
    .fil3 {fill:#EC268F;fill-rule:nonzero}
    .fil8 {fill:#F48A36;fill-rule:nonzero}
    .fil11 {fill:#F49540;fill-rule:nonzero}
    .fil7 {fill:#F58634;fill-rule:nonzero}
    .fil9 {fill:#F58E39;fill-rule:nonzero}
    .fil10 {fill:#F5923C;fill-rule:nonzero}
    .fil12 {fill:#F59943;fill-rule:nonzero}
    .fil15 {fill:#F5A64F;fill-rule:nonzero}
    .fil13 {fill:#F69E47;fill-rule:nonzero}
    .fil14 {fill:#F6A24A;fill-rule:nonzero}
    .fil16 {fill:#F6AA53;fill-rule:nonzero}
    .fil18 {fill:#F6B25C;fill-rule:nonzero}
    .fil17 {fill:#F7AE58;fill-rule:nonzero}
    .fil19 {fill:#F7B761;fill-rule:nonzero}
    .fil20 {fill:#F7BB66;fill-rule:nonzero}
    .fil22 {fill:#F7C470;fill-rule:nonzero}
    .fil21 {fill:#F8C06B;fill-rule:nonzero}
    .fil23 {fill:#F8C875;fill-rule:nonzero}
    .fil24 {fill:#F8CD79;fill-rule:nonzero}
    .fil25 {fill:#F8D17E;fill-rule:nonzero}
    .fil26 {fill:#F8D583;fill-rule:nonzero}
    .fil27 {fill:#F8D988;fill-rule:nonzero}
    .fil28 {fill:#F8DE8E;fill-rule:nonzero}
    .fil1 {fill:#FEFEFE;fill-rule:nonzero}
    .fil30 {fill:black;fill-rule:nonzero;fill-opacity:0.250980}
    .fil5 {fill:black;fill-opacity:0.501961}
    .fil0 {fill:url(#id0)}
    .fil31 {fill:url(#id1);fill-rule:nonzero}
   ]]>
  </style>
  <radialGradient id="id0" gradientUnits="objectBoundingBox" cx="52.0001%" cy="51.9999%" r="50%" fx="52.0001%" fy="51.9999%">
   <stop offset="0" style="stop-color:#00AFEF"/>
   <stop offset="0.321569" style="stop-color:#0F92D5"/>
   <stop offset="1" style="stop-color:#1E76BB"/>
   <stop offset="1" style="stop-color:#1E76BB"/>
  </radialGradient>
  <radialGradient id="id1" gradientUnits="objectBoundingBox" xlink:href="#id0" cx="52%" cy="52.0001%" r="50%" fx="52%" fy="52.0001%">
  </radialGradient>
 </defs>
 <g id="Camada_x0020_1">
  <metadata id="CorelCorpID_0Corel-Layer"/>
  <polygon class="fil0" points="4459,22054 24840,22054 24840,11723 4459,11723 "/>
  <path class="fil1" d="M14630 80c717,-60 1413,-80 2110,-80 3424,0 6449,657 8678,1752 2309,1135 3742,2787 3901,4717 0,119 20,219 20,318l0 0 0 0c0,637 -139,1254 -398,1851 -259,597 -617,1154 -1095,1712 -2369,2727 -7365,4857 -13137,5294 -717,60 -1413,80 -2110,80l0 0c-3424,0 -6449,-657 -8678,-1752 -2309,-1135 -3742,-2787 -3901,-4717 0,-119 -20,-219 -20,-318l0 0 0 0c0,-637 139,-1254 398,-1851 259,-597 617,-1154 1095,-1712 2369,-2727 7365,-4857 13137,-5294z"/>
  <g>
   <polygon class="fil2 str0" points="6688,17834 6767,19088 6389,19108 6310,17854 "/>
  </g>
  <g>
   <g>
    <path id="_1" class="fil2 str0" d="M7006 19088l-60 -935c0,-100 20,-179 100,-239 60,-80 139,-119 239,-119 60,0 119,0 179,40 60,20 100,60 139,119 20,-60 60,-100 119,-139 60,-40 100,-60 159,-60 0,0 0,0 0,0 0,0 0,0 20,0 119,0 219,20 279,100 60,80 100,159 119,279l60 876 -358 20 -40 -816c0,0 0,0 0,0 0,0 0,0 0,0 0,-20 0,-20 -20,-40 0,-20 -20,-20 -40,-20 -20,0 -40,0 -40,20 0,20 -20,20 -20,40 0,0 0,0 0,0 0,0 0,0 0,0l40 816 -378 20 -40 -816c0,0 0,0 0,0 0,0 0,0 0,0 0,-20 0,-20 -20,-40 0,-20 -20,-20 -40,-20 -20,0 -40,0 -40,20 0,20 -20,40 -20,40l40 816 -378 20 0 20z"/>
   </g>
  </g>
  <g>
   <g>
    <path id="_2" class="fil2 str0" d="M8957 18531l-20 -338c20,0 60,0 80,-20 20,-20 40,-40 40,-60 0,-20 -20,-40 -20,-60 -20,-20 -40,-20 -60,-20 -20,0 -40,20 -60,40 -20,20 -20,40 -20,60 0,0 0,0 0,0 0,0 0,0 0,0l60 836 -378 20 -40 -796c0,-20 0,-60 0,-80 0,-20 0,-60 20,-80 20,-100 80,-179 159,-239 80,-60 159,-100 259,-100 119,0 239,20 338,100 100,80 159,179 159,318 0,60 0,119 -20,179 -20,60 -60,100 -100,159 0,0 0,0 -20,20 0,0 0,0 -20,0 -40,20 -80,40 -119,60 -40,0 -80,20 -139,20l-80 0 -20 -20z"/>
   </g>
  </g>
  <g>
   <g>
    <path id="_3" class="fil2 str0" d="M9972 17993l60 916 -378 20 -80 -1254 518 -40c100,0 219,20 299,100 100,80 139,159 159,279 0,60 0,119 -40,179 -20,60 -60,119 -119,159l239 498 -398 20 -199 -398 -20 -318c0,0 0,0 0,0 0,0 0,0 20,0 40,0 60,-20 80,-20 20,-20 40,-40 40,-80 0,-40 -20,-60 -40,-60 -20,-20 -40,-20 -80,-20 0,0 0,0 0,0 0,0 0,0 0,0l-100 0 40 20z"/>
   </g>
  </g>
  <g>
   <g>
    <path id="_4" class="fil2 str0" d="M11425 18053l20 279 -239 20c0,0 0,0 0,0 0,0 0,0 0,0 -20,0 -40,0 -60,20 -20,0 -20,20 -20,60 0,20 20,40 20,40 20,0 40,0 60,0 0,0 0,0 20,0 0,0 0,0 20,0l259 -20 20 358 -299 20c-60,0 -100,0 -159,0 -40,0 -100,-40 -139,-60 -40,-40 -80,-80 -100,-119 -20,-40 -40,-100 -40,-139l-40 -557c0,-100 20,-179 100,-239 60,-80 159,-119 239,-119l358 -20 20 358 -259 20c0,0 0,0 0,0 0,0 0,0 0,0 -20,0 -40,0 -60,20 -20,0 -20,20 -20,60 0,20 0,40 20,40 20,0 40,20 60,20 0,0 0,0 20,0 0,0 0,0 20,0l219 -20 -40 -20z"/>
   </g>
  </g>
  <g>
   <g>
    <path id="_5" class="fil2 str0" d="M12301 17516l20 358c-20,0 -20,0 -40,0 -20,0 -20,0 -40,0 -20,0 -60,20 -80,40 -20,20 -20,40 -20,80 0,20 20,40 20,80 20,20 40,60 60,100 20,40 40,80 60,100 20,40 20,80 20,119 0,119 -40,239 -119,318 -80,80 -199,139 -318,139 -20,0 -60,0 -80,0 -20,0 -60,-20 -80,-20l-20 -358c20,0 40,20 40,20 20,0 40,0 40,0 0,0 0,0 0,0 0,0 0,0 0,0 20,0 40,-20 60,-40 20,-20 20,-40 20,-60 0,-20 0,-40 -20,-60 -20,-20 -40,-60 -60,-80 -20,-40 -40,-80 -60,-119 -20,-40 -20,-80 -40,-139 0,-119 20,-219 100,-318 80,-100 179,-139 299,-139 20,0 60,0 80,0 20,0 60,0 80,20l0 0 80 -40z"/>
   </g>
  </g>
  <g>
   <g>
    <path id="_6" class="fil2 str0" d="M13117 17476l20 358c-20,0 -20,0 -40,0 -20,0 -20,0 -40,0 -20,0 -60,20 -80,40 -20,20 -20,40 -20,80 0,20 20,40 20,80 20,20 40,60 60,100 20,40 40,80 60,100 20,40 20,80 20,119 0,119 -40,239 -119,318 -80,80 -199,139 -318,139 -20,0 -60,0 -80,0 -20,0 -60,-20 -80,-20l-20 -358c20,0 40,20 40,20 20,0 40,0 40,0 0,0 0,0 0,0 0,0 0,0 0,0 20,0 40,-20 60,-40 20,-20 20,-40 20,-60 0,-20 0,-40 -20,-60 -20,-20 -40,-60 -60,-80 -20,-40 -40,-80 -60,-119 -20,-40 -20,-80 -40,-139 0,-119 20,-219 100,-318 80,-100 179,-139 299,-139 20,0 60,0 80,0 20,0 60,0 80,20l0 0 80 -40z"/>
   </g>
  </g>
  <g>
   <g>
    <path id="_7" class="fil2 str0" d="M13833 18053l20 338 -100 0 20 299 -378 20 -40 -816c0,-139 20,-259 100,-358 80,-100 199,-139 338,-159 139,0 239,40 338,119 80,80 139,199 139,318l40 796 -378 20 -40 -816c0,0 0,0 0,0 0,0 0,0 0,0 0,-20 -20,-40 -20,-60 -20,-20 -40,-20 -60,-20 -20,0 -40,20 -60,40 -20,20 -20,40 -20,80l20 179 100 0 -20 20zm20 -935l139 0c0,20 0,20 0,40 0,20 0,20 0,40 0,40 -20,80 -40,100 -20,40 -60,40 -100,60 -20,0 -20,0 -40,0 -20,0 -20,0 -40,-20 0,0 0,0 0,0 0,0 0,0 0,0 0,0 -20,0 -20,-20 0,0 -20,0 -20,0 -20,0 -20,0 -20,20 0,0 0,20 0,20 0,0 0,0 0,0 0,0 0,0 0,0l-139 0c0,0 0,-20 0,-20 0,0 0,-20 0,-20 0,-40 20,-80 40,-119 20,-40 60,-60 100,-60 20,0 40,0 40,0 20,0 20,0 40,20 0,0 0,0 0,0 0,0 0,0 20,0 0,0 20,0 20,0 0,0 20,0 20,0 20,0 20,0 20,-20 0,0 0,-20 0,-20 0,0 0,0 0,0 0,0 0,0 0,0l0 0 -20 0z"/>
   </g>
  </g>
  <g>
   <g>
    <path id="_8" class="fil2 str0" d="M14450 18013c-20,-179 40,-338 159,-458 119,-139 279,-199 438,-219 179,-20 338,40 478,159 139,119 219,259 219,438 20,179 -40,338 -159,478 -119,139 -279,219 -458,239 -179,20 -338,-40 -478,-179 -139,-119 -199,-279 -219,-458l0 0 20 0zm358 -20c0,80 40,159 100,219 60,60 139,80 219,80 80,0 159,-40 199,-100 60,-60 80,-139 80,-219 0,-80 -40,-139 -100,-199 -60,-40 -139,-80 -219,-60 -80,0 -139,40 -199,100 -60,60 -80,119 -80,199l0 0 0 -20z"/>
   </g>
  </g>
  <g>
   <g>
    <path id="_9" class="fil2 str0" d="M16819 17635l60 876 -378 20 -80 -1254 557 -40c40,0 80,0 100,0 40,0 80,0 100,20 119,40 219,100 318,199 80,100 139,219 139,338 20,179 -40,338 -159,478 -119,139 -259,199 -458,219 -20,0 -20,0 -20,0 0,0 -20,0 -20,0 -20,0 -20,0 -20,0 0,0 -20,0 -20,0l-20 -358 100 0c80,0 139,-20 199,-80 60,-40 80,-119 80,-199 0,-80 -40,-139 -80,-179 -60,-40 -119,-60 -179,-60l-179 0 -40 20z"/>
   </g>
  </g>
  <g>
   <g>
    <polygon id="_10" class="fil2 str0" points="18192,17197 18272,18431 17894,18471 17814,17217 "/>
   </g>
  </g>
  <g>
   <g>
    <path id="_11" class="fil2 str0" d="M19028 17695l358 -20c40,40 60,80 80,139 20,40 40,100 40,159 0,139 -40,239 -119,318 -80,80 -199,139 -318,139 -179,20 -338,-60 -458,-179 -119,-139 -179,-279 -199,-458 -20,-179 40,-318 159,-458 119,-139 259,-199 438,-219 40,0 80,0 100,0 40,0 60,20 100,20l20 378c0,0 0,0 -20,0 0,0 0,0 -20,0 -20,0 -40,-20 -60,-20 -20,0 -40,0 -60,0 -80,0 -139,40 -199,100 -60,60 -80,119 -80,199 0,80 40,159 80,219 60,60 119,80 219,80 0,0 0,0 20,0 0,0 0,0 20,0 20,0 20,0 40,-20 20,0 20,-20 20,-40 0,-20 0,-20 -20,-40 -20,0 -20,0 -40,0l-80 0 -20 -279 0 -20z"/>
   </g>
  </g>
  <g>
   <g>
    <polygon id="_12" class="fil2 str0" points="20004,17078 20083,18332 19705,18352 19625,17118 "/>
   </g>
  </g>
  <g>
   <g>
    <polygon id="_13" class="fil2 str0" points="20840,17396 20899,18292 20521,18312 20461,17416 20183,17436 20163,17078 21098,17018 21118,17376 "/>
   </g>
  </g>
  <g>
   <g>
    <path id="_14" class="fil2 str0" d="M21775 17615l20 338 -100 0 20 299 -378 20 -40 -816c0,-139 20,-259 100,-358 80,-100 199,-139 338,-159 139,0 239,40 338,119 80,80 139,199 139,318l40 796 -378 20 -40 -816c0,0 0,0 0,0 0,0 0,0 0,0 0,-20 -20,-40 -20,-60 -20,-20 -40,-20 -60,-20 -20,0 -40,20 -60,40 -20,20 -20,40 -20,80l20 179 100 0 -20 20z"/>
   </g>
  </g>
  <g>
   <g>
    <path id="_15" class="fil2 str0" d="M22392 16958l358 -20 40 776c0,60 20,80 60,100 40,20 80,20 119,20l20 358 -119 0c-119,0 -239,-20 -318,-100 -80,-80 -119,-179 -139,-299l-40 -816 20 -20z"/>
   </g>
  </g>
  <path class="fil3" d="M6703 17842l71 1253 -377 21 -71 -1253 377 -21zm309 1239l-53 -939c-5,-91 26,-173 93,-245 67,-72 147,-111 238,-116 68,-4 128,8 182,35 54,27 99,69 136,124 25,-52 62,-95 112,-130 50,-35 104,-56 161,-63 3,0 5,0 8,0 3,0 7,0 10,-1 118,-7 210,27 276,102 66,75 103,167 109,277l50 881 -368 21 -47 -826c0,0 0,-1 0,-3 0,-2 0,-3 0,-5 -2,-15 -7,-29 -16,-42 -8,-13 -21,-19 -39,-18 -19,1 -32,8 -40,22 -8,14 -13,29 -14,45 0,3 0,5 0,7 0,2 0,4 0,7l46 819 -370 21 -47 -826c0,0 0,-1 0,-3 0,-2 0,-3 0,-5 -2,-15 -7,-29 -16,-41 -8,-13 -21,-19 -39,-18 -20,1 -34,9 -42,25 -8,15 -11,32 -10,50l47 824 -370 21zm1959 -544l-19 -329c29,0 54,-7 76,-21 22,-14 32,-36 30,-68 -1,-24 -11,-44 -28,-62 -17,-17 -38,-25 -64,-24 -26,1 -46,13 -58,33 -13,21 -20,43 -21,67 0,1 0,3 0,5 0,2 0,3 0,5l47 828 -374 21 -45 -804c-2,-28 -2,-55 -1,-84 1,-28 6,-57 16,-85 29,-92 82,-169 161,-232 79,-63 166,-97 263,-102 121,-7 234,30 337,110 103,80 158,184 165,310 3,61 -6,121 -28,179 -22,58 -57,109 -104,151 -5,4 -9,8 -14,11 -4,3 -8,6 -12,9 -40,29 -80,48 -121,57 -41,10 -85,16 -133,19l-75 4zm1015 -542l52 915 -372 21 -71 -1253 515 -29c109,-5 211,28 305,100 94,71 145,165 151,280 4,66 -7,129 -32,188 -25,59 -63,111 -115,155l245 502 -392 22 -203 -394 -18 -321c3,1 5,2 9,1 3,0 7,0 10,-1 33,-3 62,-12 89,-26 27,-14 39,-42 37,-83 -2,-30 -14,-51 -36,-64 -22,-13 -46,-19 -73,-18 -1,0 -3,0 -5,0 -2,0 -3,0 -5,0l-92 3zm1456 66l16 282 -244 14c-1,1 -2,2 -3,2 -1,0 -2,0 -3,0 -21,1 -41,6 -59,14 -18,8 -26,26 -24,53 1,26 11,43 28,49 17,7 36,10 56,10 5,0 10,-1 14,-1 4,0 9,-1 14,-1l250 -14 20 357 -306 17c-55,3 -107,0 -156,-8 -49,-9 -96,-31 -142,-67 -39,-32 -71,-70 -94,-115 -23,-45 -36,-93 -39,-143l-31 -554c-5,-93 27,-175 96,-247 69,-71 150,-110 241,-115l360 -22 20 362 -250 14c-1,1 -2,2 -3,2 -1,0 -2,0 -3,0 -20,1 -38,7 -54,16 -16,10 -23,26 -22,50 1,22 10,37 25,44 16,8 32,12 50,14 4,0 7,0 10,-1 3,0 7,0 10,-1l220 -12zm859 -540l20 355c-10,-2 -21,-4 -31,-7 -11,-3 -21,-4 -31,-3 -29,2 -53,14 -71,37 -19,23 -27,48 -26,76 1,21 10,46 26,73 16,27 34,58 53,91 20,34 38,70 54,109 17,39 26,80 29,124 7,125 -33,232 -119,319 -87,87 -191,135 -314,141 -29,2 -57,0 -86,-6 -29,-6 -56,-14 -83,-24l-21 -364c16,9 31,16 47,21 16,5 32,7 48,6 3,0 5,0 8,0 2,0 5,0 8,0 25,-5 47,-17 67,-36 20,-19 29,-41 27,-68 -1,-20 -9,-43 -25,-70 -15,-26 -33,-56 -52,-89 -18,-33 -36,-70 -52,-111 -17,-41 -27,-86 -29,-136 -7,-116 29,-219 108,-309 78,-90 176,-138 294,-145 26,-1 52,-1 78,2 26,3 51,8 75,16l0 -2zm826 -47l20 355c-10,-2 -21,-4 -31,-7 -11,-3 -21,-4 -31,-3 -29,2 -53,14 -71,37 -19,23 -27,48 -26,76 1,21 10,46 26,73 16,27 34,58 53,91 20,34 38,70 54,109 17,39 26,80 29,124 7,126 -33,232 -119,319 -87,87 -191,135 -314,141 -29,2 -57,-1 -86,-6 -29,-6 -56,-14 -83,-24l-21 -364c16,9 31,16 47,21 16,5 32,7 48,6 2,0 5,0 8,0 2,0 5,0 8,0 25,-5 47,-17 67,-36 20,-19 29,-41 27,-68 -1,-20 -9,-43 -25,-70 -15,-26 -33,-56 -52,-89 -18,-33 -36,-70 -52,-111 -17,-41 -27,-86 -29,-136 -7,-116 29,-219 108,-309 78,-90 176,-138 294,-145 26,-1 52,-1 78,2 26,3 51,8 75,16l0 -2zm715 591l19 329 -101 6 17 299 -377 21 -46 -807c-8,-141 27,-258 106,-350 79,-92 190,-142 334,-150 134,-8 244,33 330,123 86,89 133,198 140,327l46 806 -377 21 -46 -807c0,0 0,-1 0,-3 0,-2 0,-4 0,-7 -2,-21 -10,-41 -23,-59 -13,-18 -31,-27 -55,-27 -28,2 -48,13 -60,34 -13,21 -18,45 -17,72l10 178 101 -6zm13 -943l141 -8c1,11 0,23 -1,34 -1,11 -3,23 -5,34 -5,37 -18,71 -38,103 -20,32 -51,49 -92,51 -14,1 -27,0 -41,-3 -13,-3 -26,-8 -38,-15 -3,-1 -5,-3 -9,-5 -3,-2 -6,-5 -9,-7 -8,-5 -16,-9 -23,-12 -8,-3 -15,-5 -23,-4 -11,1 -19,5 -24,14 -5,8 -7,18 -8,28 0,3 0,4 -1,6 -1,1 -1,3 -1,4l-137 8c0,-6 0,-13 0,-20 0,-7 1,-14 2,-22 3,-41 13,-79 31,-114 18,-35 50,-56 96,-63 16,-1 30,1 43,5 12,4 24,9 36,15 3,2 6,4 9,6 3,2 7,3 11,4 8,3 15,6 23,9 8,3 16,4 25,3 13,-1 21,-6 26,-15 4,-9 7,-19 8,-29 0,-1 0,-2 0,-3 0,-1 0,-2 0,-3l0 -2zm595 889c-10,-178 47,-332 170,-462 123,-130 273,-200 448,-210 177,-10 334,43 473,158 139,115 214,262 224,441 10,182 -44,343 -163,485 -119,142 -271,218 -456,228 -185,10 -345,-48 -479,-175 -134,-127 -206,-282 -216,-463l0 -2zm367 -15c5,81 36,152 95,211 59,59 129,87 212,82 84,-5 152,-40 204,-107 52,-66 76,-140 71,-220 -4,-79 -38,-143 -99,-193 -62,-50 -132,-73 -209,-68 -76,4 -142,35 -197,93 -55,58 -80,125 -76,203l0 -2z"/>
  <path class="fil3" d="M16836 17644l50 879 -376 21 -71 -1253 560 -32c36,-1 73,0 109,1 37,2 73,8 108,18 121,36 226,105 314,207 88,102 136,217 143,347 11,188 -42,347 -159,476 -116,129 -268,200 -454,212 -10,1 -20,1 -29,2 -9,1 -19,0 -29,0 -10,1 -20,1 -29,1 -9,0 -19,0 -29,1l-21 -368 96 -5c78,-3 145,-29 201,-76 56,-48 82,-114 77,-197 -4,-73 -34,-132 -88,-178 -55,-46 -117,-67 -187,-63l-186 9zm1368 -452l71 1253 -377 21 -71 -1253 377 -21zm826 507l355 -20c35,41 64,85 88,133 24,48 38,99 41,154 7,130 -32,239 -119,325 -87,87 -193,133 -320,141 -184,10 -336,-52 -455,-187 -119,-135 -184,-289 -194,-460 -10,-174 44,-326 163,-457 118,-130 263,-200 435,-210 36,-2 72,-1 106,4 34,5 69,12 103,21l21 368c-4,-1 -8,-2 -12,-4 -4,-2 -9,-3 -12,-4 -22,-8 -44,-14 -66,-18 -22,-4 -45,-6 -69,-5 -78,4 -143,36 -195,96 -53,59 -78,128 -78,205 5,83 33,154 86,212 53,59 123,86 211,81 4,0 8,0 12,-1 4,0 9,-1 14,-3 14,-2 26,-7 38,-15 11,-8 17,-20 16,-37 -1,-18 -8,-29 -21,-34 -13,-5 -27,-7 -42,-6l-88 5 -16 -285zm979 -609l71 1253 -377 21 -71 -1253 377 -21zm843 310l51 896 -374 21 -51 -896 -285 16 -20 -357 941 -53 20 357 -282 16zm926 217l19 329 -101 6 17 299 -377 21 -46 -807c-8,-141 27,-258 106,-350 79,-92 190,-142 334,-150 134,-8 244,33 330,123 86,89 133,198 140,327l46 806 -377 21 -46 -807c0,0 0,-1 0,-3 0,-2 0,-4 0,-7 -2,-21 -10,-41 -23,-59 -13,-18 -31,-27 -55,-27 -28,2 -48,13 -60,34 -13,21 -18,45 -17,72l10 178 101 -6zm622 -662l368 -21 44 770c3,51 21,84 54,97 33,13 71,19 114,16l20 361 -115 6c-126,7 -230,-29 -309,-108 -80,-79 -123,-180 -130,-303l-46 -819z"/>
  <path class="fil1" d="M15319 19810l-437 25c-3,-8 -5,-17 -8,-26 -3,-9 -4,-18 -5,-27 -1,-14 0,-28 2,-40 2,-12 4,-25 8,-37l153 -9c-5,-24 -17,-43 -35,-57 -18,-15 -40,-21 -65,-20 -37,2 -64,17 -82,44 -18,28 -28,57 -32,89 0,5 0,10 0,15 0,5 0,10 0,15 0,6 1,12 2,18 1,6 2,13 3,20 7,30 20,58 41,83 20,25 48,36 82,34 18,-1 34,-6 47,-14 13,-8 24,-19 35,-32l171 180c-33,30 -70,54 -112,71 -42,17 -85,27 -130,30 -109,6 -203,-27 -284,-100 -80,-73 -123,-164 -129,-271 -6,-103 28,-194 102,-273 74,-79 161,-122 263,-127 104,-6 196,26 278,96 82,70 125,157 131,261 0,4 0,8 1,12 0,4 0,8 1,13 -1,4 -1,8 -1,12 0,4 1,9 1,14zm1028 -755l16 289c-8,-2 -17,-3 -26,-5 -9,-2 -17,-3 -25,-2 -23,1 -43,11 -58,30 -15,19 -22,39 -21,62 1,17 8,37 21,59 13,22 27,47 43,74 16,28 31,57 44,89 14,32 21,65 23,101 6,102 -27,189 -97,259 -70,71 -156,109 -255,115 -23,1 -47,0 -70,-5 -23,-5 -46,-11 -68,-19l-17 -296c13,7 26,13 38,17 13,4 26,5 39,5 2,0 4,0 6,0 2,0 4,0 6,0 20,-4 38,-14 54,-29 16,-15 23,-34 22,-55 -1,-16 -8,-35 -20,-57 -12,-21 -27,-45 -42,-72 -15,-27 -29,-57 -43,-91 -14,-34 -22,-70 -24,-110 -5,-94 24,-178 88,-251 64,-73 143,-112 239,-118 21,-1 43,-1 64,2 21,2 41,7 61,13l0 -2zm761 357l13 229 -198 11c-1,1 -2,2 -2,2 -1,0 -1,0 -2,0 -17,1 -33,5 -48,11 -14,6 -21,21 -20,43 1,21 9,35 23,40 14,5 29,8 46,8 4,0 8,0 11,-1 4,0 7,0 11,-1l203 -11 16 290 -249 14c-45,3 -87,0 -127,-7 -40,-7 -78,-25 -116,-55 -32,-26 -58,-57 -76,-94 -19,-37 -30,-75 -32,-116l-25 -450c-4,-76 22,-143 78,-201 56,-58 122,-89 196,-94l293 -18 17 295 -203 11c-1,1 -2,2 -2,2 -1,0 -1,0 -2,0 -16,1 -31,5 -44,13 -13,8 -19,21 -18,41 1,18 8,30 20,36 13,6 26,10 40,11 3,0 6,0 8,0 3,0 5,0 8,0l179 -10zm517 -150l42 743 -302 17 -58 -1018 418 -24c89,-4 171,23 248,81 77,58 118,134 123,227 3,54 -6,105 -26,153 -20,48 -51,90 -93,126l199 408 -319 18 -165 -320 -15 -261c2,1 4,1 7,1 3,0 5,0 8,0 26,-3 51,-9 72,-21 22,-11 32,-34 30,-68 -1,-24 -11,-42 -29,-52 -18,-10 -38,-15 -59,-15 -1,0 -2,0 -4,0 -2,0 -3,0 -4,0l-75 3zm903 -327l58 1018 -307 17 -58 -1018 307 -17zm671 412l289 -16c28,33 52,69 72,108 20,39 31,80 33,125 6,106 -26,194 -97,264 -71,70 -157,108 -260,114 -150,8 -273,-42 -370,-152 -97,-110 -150,-235 -157,-374 -8,-141 36,-265 132,-371 96,-106 214,-163 353,-171 30,-2 58,0 86,4 28,4 56,10 84,17l17 299c-3,-1 -6,-2 -10,-3 -4,-1 -7,-2 -10,-3 -18,-6 -36,-11 -54,-15 -18,-4 -37,-5 -56,-4 -63,4 -116,30 -159,78 -43,48 -64,104 -63,166 4,67 27,125 70,173 43,48 100,70 171,66 3,0 6,0 10,-1 4,0 7,-1 11,-2 11,-2 21,-6 31,-12 9,-7 14,-17 13,-30 -1,-14 -6,-23 -17,-27 -10,-4 -22,-6 -34,-5l-72 4 -13 -232zm805 -220l42 743 -302 17 -58 -1018 418 -24c89,-4 171,23 248,81 77,58 118,134 123,227 3,54 -6,105 -26,153 -20,48 -51,90 -93,126l199 408 -319 18 -165 -320 -15 -261c2,1 4,1 7,1 3,0 5,0 8,0 26,-3 51,-9 72,-21 22,-11 32,-34 30,-68 -1,-24 -11,-42 -29,-52 -18,-10 -38,-15 -59,-15 -1,0 -2,0 -4,0 -2,0 -3,0 -4,0l-75 3zm1004 178l15 267 -82 5 14 243 -307 17 -37 -656c-7,-115 22,-210 87,-284 64,-75 155,-115 272,-122 109,-6 198,27 268,100 70,73 108,161 114,266l37 655 -307 17 -37 -656c0,0 0,-1 0,-2 0,-2 0,-3 0,-5 -2,-17 -8,-33 -19,-48 -11,-15 -26,-22 -45,-22 -22,1 -39,11 -49,28 -10,17 -15,37 -14,58l8 145 82 -5zm844 -77l15 273 -102 6 15 266 -301 17 -37 -652c-6,-104 27,-197 98,-279 71,-82 160,-126 266,-132 63,-4 122,7 176,33 54,26 101,62 142,108l-239 194c-7,-15 -16,-28 -27,-38 -11,-11 -26,-15 -43,-14 -25,1 -44,11 -57,28 -12,17 -18,38 -16,62l8 134 102 -6zm632 -517l58 1018 -307 17 -58 -1018 307 -17zm612 475l15 267 -82 5 14 243 -307 17 -37 -656c-6,-115 22,-210 87,-284 64,-75 155,-115 272,-122 109,-6 198,27 268,100 70,73 108,161 114,266l37 655 -307 17 -37 -656c0,0 0,-1 0,-2 0,-2 0,-3 0,-5 -2,-17 -8,-33 -19,-48 -11,-15 -25,-22 -45,-22 -22,1 -39,11 -49,28 -10,17 -15,37 -14,58l8 145 82 -5z"/>
  <path class="fil4" d="M16799 597c-697,0 -1393,20 -2110,80 -5732,438 -10649,2508 -12958,5175 -438,498 -756,1015 -995,1533 -219,518 -338,1035 -338,1572l0 0 0 0c0,100 0,179 0,259 119,1672 1453,3125 3543,4160 2189,1075 5175,1712 8559,1712l0 0c697,0 1393,-20 2110,-80 5732,-438 10649,-2508 12958,-5175 438,-498 756,-1015 995,-1533 219,-518 338,-1035 338,-1572l0 0 0 0c0,-100 0,-179 0,-259 -119,-1672 -1453,-3125 -3543,-4160 -2170,-1075 -5175,-1712 -8559,-1712z"/>
  <path class="fil5" d="M28324 4757c-3125,1553 -6947,2986 -11146,4100 -6210,1632 -12022,2269 -16301,1931 -318,-577 -478,-1194 -478,-1851 0,-4060 6369,-7842 14251,-8439 6469,-498 11942,1334 13674,4259l0 0z"/>
  <path class="fil6" d="M28264 4658c-3085,1513 -6807,2886 -10888,3961 -6349,1672 -12301,2289 -16600,1911 -219,-498 -358,-1035 -358,-1592 0,-4060 6369,-7842 14251,-8439 6389,-478 11803,1294 13614,4160l-20 0z"/>
  <g>
   <path class="fil7" d="M677 10310c100,0 199,20 299,20 5314,239 12878,-756 19765,-2926 2607,-816 5115,-1811 7365,-2966 0,0 0,0 0,0 -2249,1154 -4757,2150 -7365,2966 -6887,2170 -14450,3165 -19765,2926 -100,0 -199,0 -299,-20l0 0z"/>
   <path class="fil8" d="M557 9952c80,0 159,0 239,0 5613,179 13395,-896 20322,-3185 2369,-776 4638,-1692 6688,-2767 0,0 0,0 0,0 -2050,1055 -4319,1990 -6688,2767 -6907,2269 -14709,3344 -20322,3185 -80,0 -159,0 -239,0l0 0z"/>
   <path class="fil9" d="M478 9594c60,0 139,0 199,0 5872,100 13813,-1055 20680,-3404 2150,-736 4220,-1592 6071,-2548 0,0 0,0 0,0 -1851,975 -3921,1831 -6071,2568 -6887,2349 -14809,3503 -20680,3404 -60,0 -139,0 -199,0 0,0 0,0 0,0l0 -20z"/>
   <path class="fil10" d="M418 9255c80,0 139,0 219,0 6130,0 14112,-1214 20919,-3603 1951,-697 3802,-1473 5494,-2349 0,0 0,0 0,0 -1692,876 -3543,1672 -5494,2349 -6787,2388 -14789,3603 -20919,3603 -80,0 -139,0 -219,0 0,0 0,0 0,-20l0 20z"/>
   <path class="fil11" d="M418 8897c100,0 199,0 299,0 6349,-100 14351,-1373 20999,-3802 1752,-637 3404,-1334 4896,-2130 0,0 0,0 20,0 -1513,796 -3165,1493 -4916,2130 -6668,2408 -14649,3702 -20999,3802 -100,0 -199,0 -299,0 0,0 0,0 0,-20l0 20z"/>
   <path class="fil12" d="M438 8559c159,0 338,0 498,-20 6568,-219 14470,-1553 20959,-3981 1513,-577 2966,-1194 4279,-1891 0,0 20,0 20,0 -1334,697 -2767,1314 -4299,1891 -6489,2428 -14391,3782 -20959,3981 -179,0 -338,20 -498,20 0,0 0,-20 0,-20l0 20z"/>
   <path class="fil13" d="M478 8200c279,-20 577,-20 856,-40 6728,-338 14510,-1752 20760,-4180 1274,-498 2488,-1035 3623,-1612 0,0 20,0 20,20 -1135,577 -2349,1115 -3642,1612 -6250,2428 -14032,3822 -20760,4180 -299,20 -577,20 -856,40 0,0 0,-20 0,-20z"/>
   <path class="fil14" d="M557 7862c458,-20 935,-60 1413,-80 6827,-478 14391,-1931 20362,-4339 1015,-398 1970,-836 2886,-1314 0,0 20,0 20,20 -916,458 -1891,896 -2906,1314 -5971,2408 -13535,3861 -20382,4339 -478,40 -955,60 -1413,80 0,0 0,-20 0,-20l20 0z"/>
   <path class="fil15" d="M677 7524c736,-40 1473,-100 2209,-179 6867,-617 14132,-2130 19765,-4518 717,-299 1413,-617 2070,-955 0,0 20,0 20,20 -657,338 -1373,657 -2090,955 -5633,2369 -12918,3881 -19765,4518 -736,60 -1493,119 -2209,179 0,0 0,-20 0,-20z"/>
   <path class="fil16" d="M816 7165c1075,-80 2170,-179 3264,-299 6787,-756 13694,-2329 18929,-4638 398,-179 796,-358 1174,-557 20,0 20,0 40,20 -398,199 -796,378 -1194,557 -5255,2329 -12141,3881 -18929,4658 -1095,119 -2189,219 -3284,299 0,0 0,-20 20,-20l-20 -20z"/>
   <path class="fil17" d="M975 6827c1533,-139 3065,-299 4578,-518 6608,-896 13037,-2488 17854,-4737 80,-40 139,-60 219,-100 20,0 20,0 40,20 -80,40 -159,80 -239,119 -4797,2269 -11246,3861 -17854,4757 -1533,199 -3065,378 -4598,518 0,0 20,-20 20,-20l-20 -40z"/>
   <path class="fil18" d="M1194 6469c2050,-199 4100,-458 6111,-776 5931,-955 11505,-2428 15744,-4419 20,0 20,0 40,20 -4240,1990 -9833,3463 -15784,4419 -2010,318 -4080,577 -6150,796 0,-20 20,-20 20,-40l20 0z"/>
  </g>
  <path class="fil19" d="M1433 6111c2667,-279 5275,-657 7802,-1135 5016,-935 9614,-2229 13236,-3881 20,0 40,0 40,20 -3623,1652 -8240,2946 -13276,3901 -2528,478 -5155,856 -7822,1135 0,-20 20,-20 20,-40z"/>
  <path class="fil20" d="M1712 5752c3304,-398 6509,-916 9514,-1553 4001,-856 7643,-1951 10609,-3244 20,0 40,0 60,20 -2986,1314 -6628,2408 -10649,3264 -3006,637 -6230,1174 -9554,1553 20,-20 20,-20 40,-40l-20 0z"/>
  <path class="fil21" d="M2030 5394c3981,-518 7743,-1174 11146,-2010 2986,-736 5673,-1592 7982,-2568 20,0 40,0 60,20 -2309,975 -5036,1851 -8021,2588 -3424,836 -7205,1513 -11206,2030 20,-20 20,-20 40,-40l0 -20z"/>
  <path class="fil22" d="M2408 5016c4638,-637 8917,-1473 12639,-2508 1970,-557 3802,-1154 5414,-1811 20,0 60,0 80,20 -1632,677 -3483,1294 -5474,1851 -3742,1035 -8041,1871 -12699,2528 20,-20 40,-40 40,-40l0 -40z"/>
  <path class="fil23" d="M2846 4638c5255,-776 9972,-1771 13873,-3006 1055,-338 2050,-677 2986,-1035 20,0 60,0 80,20 -955,378 -1970,736 -3065,1075 -3941,1234 -8678,2229 -13953,3025 20,-20 40,-40 60,-60l20 -20z"/>
  <path class="fil24" d="M3344 4240c5812,-916 10868,-2070 14848,-3483 239,-80 478,-159 697,-259 40,0 60,0 100,0 -259,100 -518,199 -796,279 -4021,1413 -9096,2568 -14948,3503 20,-20 60,-40 80,-60l20 20z"/>
  <path class="fil25" d="M3921 3822c5553,-935 10330,-2050 14092,-3384 40,0 80,0 119,0 -3802,1353 -8638,2488 -14311,3443 40,-20 60,-40 100,-60z"/>
  <path class="fil26" d="M4618 3384c4857,-856 9017,-1851 12400,-2986 60,0 100,0 159,0 -3443,1154 -7703,2170 -12659,3045 40,-20 80,-40 119,-80l-20 20z"/>
  <path class="fil27" d="M5474 2926c3981,-756 7444,-1592 10370,-2488 60,0 119,0 199,0 -2986,935 -6568,1791 -10708,2588 60,-20 100,-60 159,-80l-20 -20z"/>
  <path class="fil28" d="M6628 2369c2886,-577 5474,-1214 7743,-1871 80,0 179,-20 259,-20 -2389,697 -5155,1353 -8260,1990 80,-40 159,-60 239,-100l20 0z"/>
  <g>
   <g>
    <path class="fil29 str1" d="M16501 4757c-159,20 -279,199 -239,398 0,60 20,100 20,159 20,179 179,318 338,279 677,-119 1373,-239 2050,-358 20,60 20,119 40,179 100,617 119,1473 -199,2488 -498,1612 -975,1314 -1433,1194 -438,-119 -577,-537 -776,-597 -279,-60 -816,358 -856,577 0,60 159,219 438,378 299,179 756,418 1294,597 119,40 916,358 1911,458 1214,119 2846,-119 3702,-1632 776,-1373 1274,-2468 1592,-3324 318,-856 418,-1453 358,-1831 -100,-776 -796,-537 -1254,-438 -916,179 -1752,358 -2488,498 -1553,318 -3025,697 -4498,975l0 0zm-7882 5076c-537,40 -617,-139 -657,-318 -239,-916 -80,-1453 318,-1791 418,-338 1115,-418 1891,-498 1334,-119 2687,-20 2687,637 0,338 -876,836 -1851,1234 -916,378 -1931,677 -2408,717l20 20zm-3384 -3284c-179,20 -537,20 -637,597 -100,597 80,1493 378,2329 299,836 697,1652 1075,2170 756,1035 1831,2130 2010,2289 239,219 438,199 637,179 139,0 1791,-438 1791,-498 0,-40 -1592,-1831 -1732,-2369 -100,-418 1612,-776 3463,-1334 2010,-597 4259,-1393 4459,-2687 40,-299 -100,-756 -776,-1095 -697,-338 -1931,-557 -3921,-338 -1214,119 -2369,259 -3523,378 -1115,119 -2189,239 -3244,338l20 40z"/>
   </g>
   <path id="_1_0" class="fil30" d="M16501 4757c-159,20 -279,199 -239,398 0,60 20,100 20,159 20,179 179,318 338,279 677,-119 1373,-239 2050,-358 20,60 20,119 40,179 100,617 119,1473 -199,2488 -498,1612 -975,1314 -1433,1194 -438,-119 -577,-537 -776,-597 -279,-60 -816,358 -856,577 0,60 159,219 438,378 299,179 756,418 1294,597 119,40 916,358 1911,458 1214,119 2846,-119 3702,-1632 776,-1373 1274,-2468 1592,-3324 318,-856 418,-1453 358,-1831 -100,-776 -796,-537 -1254,-438 -916,179 -1752,358 -2488,498 -1553,318 -3025,697 -4498,975l0 0zm-7882 5076c-537,40 -617,-139 -657,-318 -239,-916 -80,-1453 318,-1791 418,-338 1115,-418 1891,-498 1334,-119 2687,-20 2687,637 0,338 -876,836 -1851,1234 -916,378 -1931,677 -2408,717l20 20zm-3384 -3284c-179,20 -537,20 -637,597 -100,597 80,1493 378,2329 299,836 697,1652 1075,2170 756,1035 1831,2130 2010,2289 239,219 438,199 637,179 139,0 1791,-438 1791,-498 0,-40 -1592,-1831 -1732,-2369 -100,-418 1612,-776 3463,-1334 2010,-597 4259,-1393 4459,-2687 40,-299 -100,-756 -776,-1095 -697,-338 -1931,-557 -3921,-338 -1214,119 -2369,259 -3523,378 -1115,119 -2189,239 -3244,338l20 40z"/>
  </g>
  <g>
   <g>
    <path class="fil2 str2" d="M16501 4379c-159,20 -279,199 -239,398 0,60 20,100 20,159 20,179 179,318 338,279 677,-119 1373,-239 2050,-358 20,60 20,119 40,179 100,617 119,1473 -199,2488 -498,1612 -975,1314 -1433,1194 -438,-119 -577,-537 -776,-597 -279,-60 -816,358 -856,577 0,60 159,219 438,378 299,179 756,418 1294,597 119,40 916,358 1911,458 1214,119 2846,-119 3702,-1632 776,-1373 1274,-2468 1592,-3324 318,-856 418,-1453 358,-1831 -100,-776 -796,-537 -1254,-438 -916,179 -1752,358 -2488,498 -1553,318 -3025,697 -4498,975l0 0zm-7882 5076c-537,40 -617,-139 -657,-318 -239,-916 -80,-1453 318,-1791 418,-338 1115,-418 1891,-498 1334,-119 2687,-20 2687,637 0,338 -876,836 -1851,1234 -916,378 -1931,677 -2408,717l20 20zm-3384 -3284c-179,20 -537,20 -637,597 -100,597 80,1493 378,2329 299,836 697,1652 1075,2170 756,1035 1831,2130 2010,2289 239,219 438,199 637,179 139,0 1791,-438 1791,-498 0,-40 -1592,-1831 -1732,-2369 -100,-418 1612,-776 3463,-1334 2010,-597 4259,-1393 4459,-2687 40,-299 -100,-756 -776,-1095 -697,-338 -1931,-557 -3921,-338 -1214,119 -2369,259 -3523,378 -1115,119 -2189,239 -3244,338l20 40z"/>
   </g>
   <path id="_1_1" class="fil31" d="M16501 4379c-159,20 -279,199 -239,398 0,60 20,100 20,159 20,179 179,318 338,279 677,-119 1373,-239 2050,-358 20,60 20,119 40,179 100,617 119,1473 -199,2488 -498,1612 -975,1314 -1433,1194 -438,-119 -577,-537 -776,-597 -279,-60 -816,358 -856,577 0,60 159,219 438,378 299,179 756,418 1294,597 119,40 916,358 1911,458 1214,119 2846,-119 3702,-1632 776,-1373 1274,-2468 1592,-3324 318,-856 418,-1453 358,-1831 -100,-776 -796,-537 -1254,-438 -916,179 -1752,358 -2488,498 -1553,318 -3025,697 -4498,975l0 0zm-7882 5076c-537,40 -617,-139 -657,-318 -239,-916 -80,-1453 318,-1791 418,-338 1115,-418 1891,-498 1334,-119 2687,-20 2687,637 0,338 -876,836 -1851,1234 -916,378 -1931,677 -2408,717l20 20zm-3384 -3284c-179,20 -537,20 -637,597 -100,597 80,1493 378,2329 299,836 697,1652 1075,2170 756,1035 1831,2130 2010,2289 239,219 438,199 637,179 139,0 1791,-438 1791,-498 0,-40 -1592,-1831 -1732,-2369 -100,-418 1612,-776 3463,-1334 2010,-597 4259,-1393 4459,-2687 40,-299 -100,-756 -776,-1095 -697,-338 -1931,-557 -3921,-338 -1214,119 -2369,259 -3523,378 -1115,119 -2189,239 -3244,338l20 40z"/>
  </g>
 </g>
</svg>
